<svg width="82" height="18" viewBox="0 0 82 18" fill="none" xmlns="http://www.w3.org/2000/svg">
<path d="M0.910879 0.567926H12.0396V2.63918H7.6531V14.3151H5.25151V2.63918H0.892944L0.910879 0.567926ZM11.5621 4.36253H13.6157V6.28726H13.6526C13.7317 6.00318 13.8621 5.73599 14.0374 5.49885C14.2246 5.23146 14.4534 4.99587 14.7153 4.80111C14.9773 4.58104 15.2751 4.40744 15.5956 4.2878C15.9035 4.15863 16.2337 4.0909 16.5676 4.08843C16.8238 4.08843 17.0073 4.10638 17.099 4.10638C17.1954 4.12765 17.2935 4.13998 17.3921 4.14325V6.24939C17.235 6.21449 17.0758 6.18985 16.9156 6.17563C16.7575 6.15423 16.5984 6.14193 16.439 6.13876C16.0791 6.13747 15.723 6.21256 15.3942 6.35905C15.0663 6.51195 14.7731 6.73039 14.5329 7.00094C14.2766 7.31831 14.0782 7.67833 13.9467 8.06449C13.7924 8.53763 13.718 9.03311 13.7264 9.53069V14.2603H11.5262L11.5621 4.36253ZM27.475 14.3161H25.3177V12.9206H25.2808C25.0002 13.4305 24.5805 13.8502 24.0705 14.1307C23.5778 14.4279 23.0139 14.5863 22.4385 14.5892C21.923 14.6392 21.4028 14.5784 20.9127 14.4107C20.4227 14.2431 19.9742 13.9726 19.5973 13.6174C18.9497 12.7832 18.6359 11.7378 18.717 10.6849V4.36056H20.9172V10.4647C20.8459 11.1245 21.0296 11.7867 21.4306 12.3156C21.6122 12.5038 21.8324 12.6505 22.0761 12.7455C22.3198 12.8405 22.5812 12.8815 22.8423 12.8658C23.2389 12.878 23.6334 12.8028 23.9977 12.6455C24.2901 12.5189 24.5479 12.3241 24.7494 12.0774C24.9508 11.8243 25.0947 11.5304 25.1711 11.2162C25.2623 10.8631 25.3055 10.4994 25.2997 10.1347V4.36056H27.4999V14.3141L27.475 14.3161ZM31.2155 11.1265C31.2246 11.3939 31.2955 11.6557 31.4228 11.891C31.5501 12.1264 31.7303 12.3291 31.9492 12.4831C32.4112 12.7491 32.9377 12.8823 33.4705 12.8678C33.7041 12.8658 33.9373 12.8474 34.1684 12.813C34.4196 12.7824 34.6661 12.7208 34.9021 12.6296C35.1244 12.5511 35.321 12.4132 35.4704 12.2309C35.6226 12.0395 35.6941 11.7964 35.6698 11.5531C35.6668 11.4219 35.6376 11.2926 35.5841 11.1728C35.5305 11.053 35.4535 10.9451 35.3577 10.8554C35.1391 10.6693 34.8912 10.5208 34.624 10.4158C34.29 10.2956 33.9465 10.2036 33.5971 10.1407C33.2123 10.0669 32.8275 9.97625 32.4238 9.88455C32.02 9.79284 31.6173 9.6852 31.2275 9.55463C30.8575 9.43719 30.5102 9.25753 30.2006 9.02337C29.8969 8.80499 29.6515 8.51543 29.4858 8.18011C29.2904 7.78791 29.1958 7.35316 29.2107 6.91522C29.1882 6.43117 29.3285 5.95354 29.6094 5.55865C29.8728 5.19132 30.2178 4.89006 30.6173 4.67852C31.0417 4.44921 31.4996 4.28842 31.9741 4.20208C32.4398 4.11629 32.9123 4.07325 33.3858 4.0735C33.8794 4.07108 34.3716 4.1266 34.8523 4.23894C35.3034 4.33579 35.7324 4.51595 36.1174 4.7702C36.4989 5.01091 36.8191 5.33718 37.0525 5.72312C37.3168 6.15114 37.4798 6.63388 37.529 7.13451H35.2361C35.2093 6.91342 35.1306 6.70183 35.0064 6.51698C34.8821 6.33214 34.7159 6.17931 34.5213 6.07099C34.1139 5.88143 33.6686 5.78734 33.2193 5.79588C33.0728 5.79588 32.8714 5.81381 32.669 5.83275C32.4631 5.86205 32.2604 5.91112 32.0639 5.97927C31.8858 6.05035 31.7237 6.15643 31.5874 6.29125C31.5205 6.36213 31.4684 6.44563 31.4342 6.53684C31.4 6.62806 31.3842 6.72518 31.388 6.82253C31.3827 6.94332 31.4047 7.06372 31.4523 7.17484C31.5 7.28596 31.572 7.38494 31.6631 7.46442C31.8819 7.64576 32.13 7.78836 32.3969 7.88605C32.7309 8.00623 33.0743 8.09825 33.4237 8.16116C33.8085 8.23492 34.2123 8.32664 34.62 8.41734C35.0277 8.50805 35.4086 8.61669 35.7934 8.74726C36.165 8.86078 36.5129 9.04077 36.8202 9.27852C37.1202 9.49891 37.3702 9.78015 37.554 10.1038C37.7475 10.4835 37.8421 10.9059 37.8291 11.3318C37.8482 11.8613 37.7094 12.3845 37.4303 12.8349C37.158 13.2415 36.8018 13.5852 36.3856 13.8427C35.9399 14.1021 35.4581 14.2936 34.956 14.4108C34.4442 14.525 33.9221 14.5864 33.3978 14.5942C32.81 14.5991 32.2242 14.525 31.6561 14.3739C31.1571 14.2428 30.6848 14.0256 30.2604 13.732C29.875 13.4477 29.5613 13.0774 29.3443 12.6505C29.107 12.1716 28.9815 11.645 28.9774 11.1106H31.1995V11.1285L31.2155 11.1265ZM38.4572 4.36253H40.125V1.35634H42.3253V4.3466H44.3051V5.97827H42.3253V11.294C42.3267 11.4961 42.339 11.6981 42.3621 11.899C42.3801 12.0459 42.4236 12.1886 42.4907 12.3206C42.5681 12.4341 42.6764 12.523 42.8028 12.5768C42.991 12.6428 43.1896 12.6739 43.389 12.6685C43.5421 12.6716 43.6952 12.6657 43.8476 12.6505C44.0017 12.6349 44.1549 12.6103 44.3062 12.5768V14.2812C44.0679 14.3181 43.8296 14.3361 43.5913 14.355C43.3544 14.386 43.1154 14.3983 42.8766 14.3919C42.4057 14.4064 41.9353 14.3506 41.4809 14.2264C41.1714 14.1364 40.8882 13.9729 40.6554 13.7499C40.4555 13.5267 40.3179 13.2548 40.2566 12.9615C40.1815 12.6005 40.1385 12.2336 40.128 11.8651V5.9992H38.4602V4.36752L38.4572 4.36253ZM45.8454 4.36253H47.917V5.71914H47.9539C48.2289 5.17088 48.681 4.73151 49.237 4.47219C49.799 4.21189 50.4121 4.08042 51.0314 4.08743C51.7396 4.06503 52.4431 4.20947 53.0851 4.50906C53.6527 4.76523 54.1497 5.15514 54.5336 5.64537C54.9313 6.14388 55.2243 6.71749 55.395 7.33186C55.7733 8.6353 55.7861 10.0176 55.4319 11.3278C55.2668 11.9249 55 12.489 54.6433 12.9954C54.2917 13.4778 53.8339 13.873 53.3054 14.1506C52.7165 14.4545 52.0608 14.6057 51.3983 14.5902C51.0786 14.5869 50.7597 14.5562 50.4452 14.4985C50.13 14.4433 49.8225 14.3509 49.5291 14.2234C49.2376 14.0971 48.9659 13.9292 48.7225 13.725C48.4771 13.5292 48.2664 13.2933 48.0995 13.0273H48.0626V17.9951H45.8644V4.36253H45.8454ZM53.5267 9.34629C53.5301 8.9057 53.4683 8.46703 53.3433 8.04453C53.2379 7.64173 53.0576 7.26236 52.8119 6.9262C52.5806 6.60832 52.2877 6.34018 51.9506 6.13775C51.585 5.93528 51.172 5.8341 50.7543 5.8447C50.3538 5.8187 49.9531 5.89211 49.5878 6.05836C49.2226 6.22461 48.9041 6.47857 48.6607 6.79762C48.1653 7.55911 47.9212 8.45677 47.9629 9.36424C47.9543 9.83592 48.0161 10.3062 48.1463 10.7597C48.2549 11.1581 48.442 11.5309 48.6966 11.8561C48.9323 12.1626 49.2329 12.4131 49.5769 12.5897C49.9464 12.78 50.3577 12.8746 50.7732 12.8648C51.2154 12.8774 51.6527 12.7696 52.0383 12.5529C52.375 12.3499 52.6679 12.0819 52.8997 11.7644C53.128 11.4252 53.2897 11.0457 53.3762 10.6461C53.4726 10.22 53.5244 9.78508 53.5307 9.3483L53.5267 9.34629ZM57.3948 0.565918H59.595V2.63717H57.3948V0.565918ZM57.3948 4.36056H59.595V14.3141H57.3948V4.36056ZM61.556 0.565918H63.7562V14.3131H61.556V0.565918ZM70.4655 14.5882C69.7367 14.6047 69.0124 14.4689 68.3391 14.1895C67.7465 13.9378 67.2103 13.5701 66.7619 13.108C66.3262 12.6253 65.9953 12.0575 65.7899 11.4405C65.5588 10.7617 65.4412 10.0494 65.442 9.33236C65.4317 8.61943 65.5495 7.91044 65.7899 7.23918C65.9996 6.62411 66.33 6.05714 66.7619 5.57161C67.2019 5.0998 67.7404 4.73059 68.3391 4.49014C69.015 4.21943 69.7374 4.08395 70.4655 4.09142C71.1944 4.07494 71.9186 4.21076 72.592 4.49014C73.1882 4.7352 73.7257 5.10378 74.1691 5.57161C74.6048 6.05441 74.9357 6.62219 75.1411 7.23918C75.3727 7.9127 75.4903 8.62014 75.489 9.33236C75.5005 10.0502 75.3826 10.7643 75.1411 11.4405C74.9243 12.0522 74.5946 12.6179 74.1691 13.108C73.7291 13.5799 73.1907 13.9491 72.592 14.1895C71.9174 14.4624 71.1952 14.5986 70.4675 14.5902L70.4655 14.5882ZM70.4655 12.8469C70.9072 12.8549 71.3433 12.7473 71.7306 12.5349C72.0815 12.3365 72.3826 12.0607 72.6109 11.7285C72.8476 11.3895 73.0215 11.0107 73.1243 10.6102C73.3443 9.77519 73.3443 8.89747 73.1243 8.06248C73.0251 7.66072 72.8509 7.28129 72.6109 6.94412C72.3773 6.62138 72.0771 6.35253 71.7306 6.1557C71.3425 5.94545 70.9069 5.83806 70.4655 5.84373C70.0238 5.83579 69.5878 5.94332 69.2004 6.1557C68.8544 6.35311 68.5543 6.62185 68.3201 6.94412C68.0802 7.28129 67.906 7.66072 67.8067 8.06248C67.5867 8.89747 67.5867 9.77519 67.8067 10.6102C67.906 11.0119 68.0802 11.3914 68.3201 11.7285C68.5532 12.0566 68.8532 12.3314 69.2004 12.5349C69.5857 12.7546 70.0243 12.8633 70.4675 12.8489L70.4655 12.8469ZM76.148 4.36056H77.8159V1.35436H80.0161V4.34462H81.996V5.97629H80.0191V11.292C80.0205 11.4942 80.0328 11.6961 80.056 11.897C80.0739 12.044 80.1174 12.1867 80.1846 12.3186C80.2618 12.4322 80.3702 12.5211 80.4966 12.5748C80.6848 12.6408 80.8834 12.6719 81.0828 12.6665C81.2359 12.6697 81.389 12.6637 81.5414 12.6485C81.6956 12.6329 81.8487 12.6083 82 12.5748V14.2792C81.7617 14.3161 81.5234 14.334 81.2852 14.353C81.0482 14.384 80.8093 14.3963 80.5704 14.3899C80.0995 14.4044 79.6291 14.3486 79.1747 14.2244C78.8652 14.1344 78.582 13.9709 78.3492 13.748C78.1493 13.5248 78.0118 13.2528 77.9505 12.9595C77.8754 12.5985 77.8323 12.2317 77.8219 11.8631V5.99722H76.151V4.36555L76.148 4.36056Z" fill="black"/>
</svg>
